<mxfile host="65bd71144e">
    <diagram id="UlaKRqlQ1GthHX38vEOM" name="Page-1">
        <mxGraphModel dx="906" dy="563" grid="1" gridSize="10" guides="1" tooltips="1" connect="1" arrows="1" fold="1" page="1" pageScale="1" pageWidth="827" pageHeight="1169" math="0" shadow="0">
            <root>
                <mxCell id="0"/>
                <mxCell id="1" parent="0"/>
                <mxCell id="2" style="html=1;exitX=1;exitY=0.5;exitDx=0;exitDy=0;endArrow=none;endFill=0;rounded=0;entryX=1;entryY=0.88;entryDx=0;entryDy=0;" edge="1" parent="1" source="4" target="14">
                    <mxGeometry relative="1" as="geometry">
                        <mxPoint x="160" y="210" as="targetPoint"/>
                        <Array as="points">
                            <mxPoint x="120" y="190"/>
                        </Array>
                    </mxGeometry>
                </mxCell>
                <mxCell id="37" style="edgeStyle=none;rounded=0;html=1;exitX=0;exitY=0.5;exitDx=0;exitDy=0;entryX=0;entryY=0.5;entryDx=0;entryDy=0;entryPerimeter=0;endArrow=none;endFill=0;" edge="1" parent="1" source="4" target="35">
                    <mxGeometry relative="1" as="geometry">
                        <Array as="points">
                            <mxPoint x="120" y="400"/>
                        </Array>
                    </mxGeometry>
                </mxCell>
                <mxCell id="4" value="" style="pointerEvents=1;verticalLabelPosition=bottom;shadow=0;dashed=0;align=center;html=1;verticalAlign=top;shape=mxgraph.electrical.miscellaneous.batteryStack;rotation=-90;" vertex="1" parent="1">
                    <mxGeometry x="70" y="260" width="100" height="60" as="geometry"/>
                </mxCell>
                <mxCell id="5" value="+" style="text;html=1;align=center;verticalAlign=middle;resizable=0;points=[];autosize=1;strokeColor=none;fillColor=none;" vertex="1" parent="1">
                    <mxGeometry x="70" y="234" width="30" height="30" as="geometry"/>
                </mxCell>
                <mxCell id="6" value="-" style="text;html=1;align=center;verticalAlign=middle;resizable=0;points=[];autosize=1;strokeColor=none;fillColor=none;" vertex="1" parent="1">
                    <mxGeometry x="71" y="320" width="30" height="30" as="geometry"/>
                </mxCell>
                <mxCell id="36" style="edgeStyle=none;rounded=0;html=1;exitX=1;exitY=0.57;exitDx=0;exitDy=0;exitPerimeter=0;endArrow=none;endFill=0;entryX=1;entryY=0.5;entryDx=0;entryDy=0;entryPerimeter=0;" edge="1" parent="1" source="8" target="35">
                    <mxGeometry relative="1" as="geometry">
                        <mxPoint x="320" y="397" as="targetPoint"/>
                    </mxGeometry>
                </mxCell>
                <mxCell id="8" value="" style="verticalLabelPosition=bottom;shadow=0;dashed=0;align=center;html=1;verticalAlign=top;shape=mxgraph.electrical.opto_electronics.led_2;pointerEvents=1;fontFamily=Helvetica;fontSize=11;fontColor=default;rotation=90;" vertex="1" parent="1">
                    <mxGeometry x="333" y="314" width="100" height="70" as="geometry"/>
                </mxCell>
                <mxCell id="9" value="Output" style="text;html=1;align=center;verticalAlign=middle;resizable=0;points=[];autosize=1;strokeColor=none;fillColor=none;fontSize=11;fontFamily=Helvetica;fontColor=default;" vertex="1" parent="1">
                    <mxGeometry x="410" y="332" width="60" height="30" as="geometry"/>
                </mxCell>
                <mxCell id="10" value="&lt;font style=&quot;font-size: 13px;&quot;&gt;Evan Beaudoin&lt;br style=&quot;&quot;&gt;TEJ3M&lt;br&gt;Unit #4-10&lt;/font&gt;" style="text;html=1;align=left;verticalAlign=middle;resizable=0;points=[];autosize=1;strokeColor=none;fillColor=none;fontSize=17;fontFamily=Helvetica;fontColor=default;" vertex="1" parent="1">
                    <mxGeometry x="428" y="129" width="110" height="70" as="geometry"/>
                </mxCell>
                <mxCell id="13" style="edgeStyle=none;rounded=0;html=1;exitX=1;exitY=0.12;exitDx=0;exitDy=0;endArrow=none;endFill=0;" edge="1" parent="1" source="14">
                    <mxGeometry relative="1" as="geometry">
                        <mxPoint x="171" y="390" as="targetPoint"/>
                    </mxGeometry>
                </mxCell>
                <mxCell id="34" style="edgeStyle=none;rounded=0;html=1;entryX=0;entryY=0.5;entryDx=0;entryDy=0;entryPerimeter=0;endArrow=none;endFill=0;" edge="1" parent="1" source="14" target="33">
                    <mxGeometry relative="1" as="geometry"/>
                </mxCell>
                <mxCell id="14" value="" style="shape=mxgraph.electrical.electro-mechanical.twoWaySwitch;aspect=fixed;elSwitchState=2;rotation=-180;" vertex="1" parent="1">
                    <mxGeometry x="172" y="187" width="75" height="26" as="geometry"/>
                </mxCell>
                <mxCell id="15" value="NOT gate with IC&lt;br&gt;Input&amp;nbsp; A&amp;nbsp; &amp;nbsp;|&amp;nbsp; Output&lt;br&gt;------------------------&lt;br&gt;1&amp;nbsp; &amp;nbsp; |&amp;nbsp; &amp;nbsp; 0&lt;br&gt;0&amp;nbsp; &amp;nbsp; |&amp;nbsp; &amp;nbsp; 1" style="text;html=1;align=center;verticalAlign=middle;resizable=0;points=[];autosize=1;strokeColor=default;fillColor=none;" vertex="1" parent="1">
                    <mxGeometry x="428" y="216" width="120" height="90" as="geometry"/>
                </mxCell>
                <mxCell id="20" value="220 Î©" style="text;html=1;align=center;verticalAlign=middle;resizable=0;points=[];autosize=1;strokeColor=none;fillColor=none;" vertex="1" parent="1">
                    <mxGeometry x="240" y="362" width="60" height="30" as="geometry"/>
                </mxCell>
                <mxCell id="21" value="NOT Gate with IC" style="text;html=1;align=center;verticalAlign=middle;resizable=0;points=[];autosize=1;strokeColor=none;fillColor=none;fontSize=19;" vertex="1" parent="1">
                    <mxGeometry x="158" y="110" width="170" height="40" as="geometry"/>
                </mxCell>
                <mxCell id="24" value="Input A" style="text;html=1;align=center;verticalAlign=middle;resizable=0;points=[];autosize=1;strokeColor=none;fillColor=none;fontSize=11;fontFamily=Helvetica;fontColor=default;" vertex="1" parent="1">
                    <mxGeometry x="179.5" y="157" width="60" height="30" as="geometry"/>
                </mxCell>
                <mxCell id="26" value="5 V" style="text;html=1;align=center;verticalAlign=middle;resizable=0;points=[];autosize=1;strokeColor=none;fillColor=none;fontSize=13;" vertex="1" parent="1">
                    <mxGeometry x="50" y="276" width="40" height="30" as="geometry"/>
                </mxCell>
                <mxCell id="28" value="" style="ellipse;whiteSpace=wrap;html=1;aspect=fixed;fontFamily=Helvetica;fontSize=11;fillColor=#000000;fontColor=#ffffff;strokeColor=none;fillStyle=solid;shadow=1;" vertex="1" parent="1">
                    <mxGeometry x="162" y="392" width="17" height="17" as="geometry"/>
                </mxCell>
                <mxCell id="29" value="" style="ellipse;whiteSpace=wrap;html=1;aspect=fixed;fontFamily=Helvetica;fontSize=11;fillColor=#000000;fontColor=#ffffff;strokeColor=none;fillStyle=solid;shadow=1;" vertex="1" parent="1">
                    <mxGeometry x="112" y="182" width="17" height="17" as="geometry"/>
                </mxCell>
                <mxCell id="33" value="" style="verticalLabelPosition=bottom;shadow=0;dashed=0;align=center;html=1;verticalAlign=top;shape=mxgraph.electrical.logic_gates.inverter_2;rotation=90;" vertex="1" parent="1">
                    <mxGeometry x="328" y="220" width="100" height="60" as="geometry"/>
                </mxCell>
                <mxCell id="35" value="" style="pointerEvents=1;verticalLabelPosition=bottom;shadow=0;dashed=0;align=center;html=1;verticalAlign=top;shape=mxgraph.electrical.resistors.resistor_2;" vertex="1" parent="1">
                    <mxGeometry x="220" y="390" width="100" height="20" as="geometry"/>
                </mxCell>
            </root>
        </mxGraphModel>
    </diagram>
</mxfile>